<?xml version="1.0" standalone="no"?>
<!DOCTYPE svg PUBLIC "-//W3C//DTD SVG 20010904//EN"
 "http://www.w3.org/TR/2001/REC-SVG-20010904/DTD/svg10.dtd">
<svg version="1.0" xmlns="http://www.w3.org/2000/svg"
 width="599.000000pt" height="599.000000pt" viewBox="0 0 599.000000 599.000000"
 preserveAspectRatio="xMidYMid meet">
<metadata>
Created by potrace 1.11, written by Peter Selinger 2001-2013
</metadata>
<g transform="translate(0.000000,599.000000) scale(0.100000,-0.100000)"
fill="#000000" stroke="none">
<path d="M810 5976 c-342 -64 -624 -297 -738 -611 -62 -171 -56 35 -59 -2335
-1 -1247 2 -2178 7 -2210 59 -360 308 -656 648 -770 154 -51 53 -49 2327 -49
2070 0 2122 0 2214 19 392 82 696 399 759 790 4 25 7 1015 7 2200 0 2265 2
2177 -42 2310 -80 247 -258 453 -490 569 -89 44 -156 66 -263 86 -103 19
-4267 20 -4370 1z"/>
</g>
</svg>
